<?xml version="1.0" encoding="UTF-8" standalone="no"?>
<!-- Generator: Adobe Illustrator 21.0.0, SVG Export Plug-In . SVG Version: 6.00 Build 0)  -->

<svg
   xmlns:dc="http://purl.org/dc/elements/1.1/"
   xmlns:cc="http://creativecommons.org/ns#"
   xmlns:rdf="http://www.w3.org/1999/02/22-rdf-syntax-ns#"
   xmlns:svg="http://www.w3.org/2000/svg"
   xmlns="http://www.w3.org/2000/svg"
   xmlns:sodipodi="http://sodipodi.sourceforge.net/DTD/sodipodi-0.dtd"
   xmlns:inkscape="http://www.inkscape.org/namespaces/inkscape"
   version="1.1"
   id="Facebook"
   x="0px"
   y="0px"
   viewBox="0 0 100 100"
   style="enable-background:new 0 0 100 100;"
   xml:space="preserve"
   sodipodi:docname="facebook.svg"
   inkscape:version="0.92.4 (unknown)"><metadata
   id="metadata3991"><rdf:RDF><cc:Work
       rdf:about=""><dc:format>image/svg+xml</dc:format><dc:type
         rdf:resource="http://purl.org/dc/dcmitype/StillImage" /></cc:Work></rdf:RDF></metadata><defs
   id="defs3989" /><sodipodi:namedview
   pagecolor="#ffffff"
   bordercolor="#666666"
   borderopacity="1"
   objecttolerance="10"
   gridtolerance="10"
   guidetolerance="10"
   inkscape:pageopacity="0"
   inkscape:pageshadow="2"
   inkscape:window-width="1366"
   inkscape:window-height="723"
   id="namedview3987"
   showgrid="false"
   inkscape:zoom="5.16"
   inkscape:cx="50"
   inkscape:cy="50"
   inkscape:window-x="0"
   inkscape:window-y="22"
   inkscape:window-maximized="1"
   inkscape:current-layer="Facebook" />
<path
   d="M50,0C22.4,0,0,22.4,0,50s22.4,50,50,50s50-22.4,50-50S77.6,0,50,0z M57,36.9c3.5,0,7.2-0.1,10.7,0.1  c-0.1,3.7,0,7.6-0.1,11.3c-3.5,0-7.1,0-10.6,0c0,11.7,0,23.3,0,35c-5,0-10,0-15,0c0-11.7,0-23.3,0-35c-3.1-0.1-6.4,0-9.6-0.1  c0-3.8,0-7.6,0-11.4c3.2,0,6.4,0,9.5,0c0.1-3,0-5.7,0.2-8.1s1-4.4,2.1-6.1c2.2-3.2,5.8-5.8,10.7-6c4-0.2,8.5,0.1,12.8,0.1  c0,3.8,0.1,7.7-0.1,11.4c-2.1,0.1-4.3-0.2-6.1,0c-1.9,0.2-3.3,1.3-3.9,2.7C56.7,32.5,57,34.6,57,36.9z"
   id="path3984" />
<path
   style="fill:#000000;stroke-width:0.19379845"
   d="M 45.484496,99.729109 C 45.164729,99.684771 43.926019,99.514475 42.731806,99.350671 30.675624,97.696986 19.044079,91.047893 11.220085,81.337209 1.2461076,68.958093 -2.2524431,52.892126 1.6825122,37.538979 3.3637188,30.979359 6.7253504,24.266514 11.047909,18.837209 12.784032,16.656569 16.391486,13.010167 18.500028,11.304631 22.433132,8.1232626 28.340847,4.769425 33.053626,3.0424855 35.722719,2.0644289 39.619529,1.0975612 42.896205,0.60036634 46.523178,0.05001874 52.806019,0.00309895 56.433965,0.49926738 77.023934,3.3152114 93.63761,18.250418 98.498399,38.313953 c 0.903491,3.729276 1.174942,5.917088 1.286434,10.368218 0.14939,5.964153 -0.420856,10.440157 -1.992533,15.639879 -5.042529,16.682681 -18.517587,29.644285 -35.339852,33.993258 -4.261791,1.101777 -6.456979,1.372665 -11.638495,1.436196 -2.611434,0.03202 -5.009689,0.02194 -5.329457,-0.0224 z M 57.015504,65.833333 V 48.294574 h 5.313698 5.313697 l 0.0691,-5.571706 c 0.038,-3.064438 0.03995,-5.637112 0.0043,-5.717054 -0.03563,-0.07994 -2.468411,-0.145349 -5.40619,-0.145349 h -5.341415 l 0.08592,-2.374031 c 0.100502,-2.777058 0.5085,-3.983136 1.716678,-5.074653 1.133136,-1.023719 2.269653,-1.272246 5.817994,-1.272246 h 3.046086 l 0.12905,-2.374031 c 0.071,-1.305717 0.10158,-3.900194 0.06798,-5.765504 l -0.06109,-3.391473 -7.46124,0.0045 -7.461241,0.0045 -1.550387,0.523475 c -2.16245,0.730133 -3.817591,1.75654 -5.415152,3.358111 -2.184924,2.190411 -3.358953,4.530593 -3.775542,7.52575 -0.114692,0.824606 -0.208531,3.106347 -0.208531,5.070533 v 3.571248 H 37.15116 32.403098 v 5.813953 5.813954 h 4.748062 4.748062 V 65.83331 83.37207 h 7.558139 7.55814 z"
   id="path3993"
   inkscape:connector-curvature="0" /></svg>