<svg width="109" height="57" viewBox="0 0 109 57" fill="none" xmlns="http://www.w3.org/2000/svg">
<g filter="url(#filter0_d)">
<path d="M9.79581 18.408C9.15581 18.408 8.59581 18.272 8.11581 18C7.65181 17.744 7.41981 17.288 7.41981 16.632C7.41981 16.216 7.52381 15.752 7.73181 15.24C8.01981 15.56 8.28381 15.784 8.52381 15.912C8.77981 16.04 9.05181 16.104 9.33981 16.104C10.1398 16.104 10.7318 15.656 11.1158 14.76C11.5158 13.864 11.7158 12.872 11.7158 11.784C11.7158 9.752 10.9558 8.736 9.43581 8.736C9.00381 8.736 8.63581 8.76 8.33181 8.808L6.36381 18H2.90781L6.17181 2.736L9.72381 2.256L8.59581 7.584H8.73981C9.34781 7.584 9.91581 7.392 10.4438 7.008C10.9718 6.608 11.3958 6.112 11.7158 5.52C12.0358 4.912 12.1958 4.304 12.1958 3.696C12.1958 2.96 11.9318 2.344 11.4038 1.848C10.8918 1.352 10.0998 1.104 9.02781 1.104C8.05181 1.104 7.09981 1.328 6.17181 1.776C5.24381 2.208 4.48381 2.864 3.89181 3.744C3.31581 4.624 3.02781 5.688 3.02781 6.936C3.02781 7.528 3.08381 7.944 3.19581 8.184C3.30781 8.408 3.36381 8.536 3.36381 8.568C2.51581 8.568 1.87581 8.4 1.44381 8.064C1.01181 7.712 0.795813 7.144 0.795813 6.36C0.795813 5.272 1.20381 4.24 2.01981 3.264C2.83581 2.288 3.91581 1.504 5.25981 0.912C6.60381 0.303999 8.01981 -1.43051e-06 9.50781 -1.43051e-06C10.6278 -1.43051e-06 11.5718 0.175999 12.3398 0.527999C13.1078 0.879999 13.6758 1.344 14.0438 1.92C14.4278 2.496 14.6198 3.128 14.6198 3.816C14.6198 4.552 14.4118 5.264 13.9958 5.952C13.5798 6.64 12.9878 7.2 12.2198 7.632C13.1798 7.808 13.8918 8.256 14.3558 8.976C14.8198 9.68 15.0518 10.52 15.0518 11.496C15.0518 12.408 14.8758 13.4 14.5238 14.472C14.1878 15.544 13.6198 16.472 12.8198 17.256C12.0358 18.024 11.0278 18.408 9.79581 18.408ZM18.7628 18.144C17.8508 18.144 17.0908 17.832 16.4828 17.208C15.8748 16.584 15.5708 15.608 15.5708 14.28C15.5708 13.096 15.8028 11.856 16.2668 10.56C16.7468 9.248 17.4508 8.144 18.3788 7.248C19.3228 6.336 20.4428 5.88 21.7388 5.88C22.3948 5.88 22.8828 5.992 23.2028 6.216C23.5228 6.44 23.6828 6.736 23.6828 7.104V7.272L23.9468 6H27.4028L25.6748 14.16C25.6108 14.4 25.5788 14.656 25.5788 14.928C25.5788 15.616 25.9068 15.96 26.5628 15.96C27.0108 15.96 27.3948 15.752 27.7148 15.336C28.0508 14.92 28.3148 14.376 28.5068 13.704H29.5148C28.9228 15.432 28.1868 16.608 27.3068 17.232C26.4428 17.84 25.5708 18.144 24.6908 18.144C24.0188 18.144 23.4748 17.96 23.0588 17.592C22.6588 17.208 22.4188 16.656 22.3388 15.936C21.8748 16.592 21.3548 17.128 20.7788 17.544C20.2188 17.944 19.5468 18.144 18.7628 18.144ZM20.3228 15.816C20.7228 15.816 21.1148 15.632 21.4988 15.264C21.8988 14.88 22.1708 14.36 22.3148 13.704L23.4668 8.28C23.4668 8.072 23.3868 7.872 23.2268 7.68C23.0668 7.472 22.8188 7.368 22.4828 7.368C21.8428 7.368 21.2668 7.744 20.7548 8.496C20.2428 9.232 19.8428 10.128 19.5548 11.184C19.2668 12.224 19.1228 13.144 19.1228 13.944C19.1228 14.744 19.2348 15.256 19.4588 15.48C19.6988 15.704 19.9868 15.816 20.3228 15.816ZM30.1476 6H33.6036L33.2916 7.488C33.8356 7.008 34.3236 6.64 34.7556 6.384C35.2036 6.128 35.6836 6 36.1956 6C36.7076 6 37.1076 6.176 37.3956 6.528C37.6996 6.88 37.8516 7.304 37.8516 7.8C37.8516 8.264 37.6996 8.672 37.3956 9.024C37.0916 9.376 36.6676 9.552 36.1236 9.552C35.7716 9.552 35.5316 9.472 35.4036 9.312C35.2916 9.136 35.2036 8.888 35.1396 8.568C35.0916 8.36 35.0436 8.208 34.9956 8.112C34.9476 8.016 34.8596 7.968 34.7316 7.968C34.3956 7.968 34.1076 8.04 33.8676 8.184C33.6436 8.312 33.3476 8.544 32.9796 8.88L31.0596 18H27.6036L30.1476 6ZM40.7311 18.144C39.6431 18.144 38.8111 17.88 38.2351 17.352C37.6591 16.808 37.3711 16.048 37.3711 15.072C37.3711 14.592 37.4271 14.136 37.5391 13.704L40.1071 1.68L43.6591 1.2L42.5071 6.6C42.9551 6.328 43.3231 6.152 43.6111 6.072C43.8991 5.976 44.1871 5.928 44.4751 5.928C46.3631 5.928 47.3071 7.296 47.3071 10.032C47.3071 11.136 47.0911 12.32 46.6591 13.584C46.2431 14.832 45.5391 15.904 44.5471 16.8C43.5711 17.696 42.2991 18.144 40.7311 18.144ZM42.0751 15.816C42.5711 15.816 43.0351 15.512 43.4671 14.904C43.8991 14.28 44.2431 13.512 44.4991 12.6C44.7551 11.672 44.8831 10.784 44.8831 9.936C44.8831 9.296 44.7711 8.752 44.5471 8.304C44.3231 7.856 44.0111 7.632 43.6111 7.632C43.3711 7.632 43.0991 7.672 42.7951 7.752C42.5071 7.816 42.3071 7.92 42.1951 8.064L40.8751 14.16C40.8271 14.352 40.8031 14.536 40.8031 14.712C40.8031 15.448 41.2271 15.816 42.0751 15.816ZM51.6351 18.144C50.4511 18.144 49.5311 17.84 48.8751 17.232C48.2191 16.608 47.8911 15.64 47.8911 14.328C47.8911 13.224 48.1071 12.008 48.5391 10.68C48.9711 9.352 49.6751 8.208 50.6511 7.248C51.6271 6.272 52.8671 5.784 54.3711 5.784C56.1311 5.784 57.0111 6.552 57.0111 8.088C57.0111 8.984 56.7551 9.808 56.2431 10.56C55.7311 11.312 55.0511 11.92 54.2031 12.384C53.3551 12.832 52.4511 13.088 51.4911 13.152C51.4591 13.632 51.4431 13.952 51.4431 14.112C51.4431 14.896 51.5791 15.432 51.8511 15.72C52.1231 15.992 52.5631 16.128 53.1711 16.128C54.0351 16.128 54.7711 15.928 55.3791 15.528C56.0031 15.128 56.6831 14.52 57.4191 13.704H58.2351C56.4591 16.664 54.2591 18.144 51.6351 18.144ZM51.6831 12C52.2751 11.968 52.8351 11.76 53.3631 11.376C53.9071 10.992 54.3391 10.504 54.6591 9.912C54.9951 9.32 55.1631 8.696 55.1631 8.04C55.1631 7.384 54.9631 7.056 54.5631 7.056C53.9871 7.056 53.4191 7.56 52.8591 8.568C52.3151 9.576 51.9231 10.72 51.6831 12ZM59.0461 6H62.5021L62.1901 7.488C62.7341 7.008 63.2221 6.64 63.6541 6.384C64.1021 6.128 64.5821 6 65.0941 6C65.6061 6 66.0061 6.176 66.2941 6.528C66.5981 6.88 66.7501 7.304 66.7501 7.8C66.7501 8.264 66.5981 8.672 66.2941 9.024C65.9901 9.376 65.5661 9.552 65.0221 9.552C64.6701 9.552 64.4301 9.472 64.3021 9.312C64.1901 9.136 64.1021 8.888 64.0381 8.568C63.9901 8.36 63.9421 8.208 63.8941 8.112C63.8461 8.016 63.7581 7.968 63.6301 7.968C63.2941 7.968 63.0061 8.04 62.7661 8.184C62.5421 8.312 62.2461 8.544 61.8781 8.88L59.9581 18H56.5021L59.0461 6ZM69.1735 18.144C68.4055 18.144 67.7575 18 67.2295 17.712C66.7015 17.408 66.3095 17.024 66.0535 16.56C65.7975 16.08 65.6695 15.584 65.6695 15.072C65.6695 14.544 65.7975 14.088 66.0535 13.704C66.2935 13.304 66.5895 13.016 66.9415 12.84C67.5655 11.72 68.1095 10.592 68.5735 9.456C69.0375 8.304 69.4775 7.064 69.8935 5.736L73.4455 5.256C73.5255 7.304 73.6615 9.52 73.8535 11.904C73.9335 12.864 73.9735 13.56 73.9735 13.992C73.9735 14.36 73.9415 14.664 73.8775 14.904C74.6295 14.472 75.2055 14.072 75.6055 13.704H76.6135C75.5895 14.888 74.3655 15.888 72.9415 16.704C72.4775 17.2 71.9015 17.568 71.2135 17.808C70.5415 18.032 69.8615 18.144 69.1735 18.144ZM68.4055 16.248C68.9975 16.248 69.4935 16.072 69.8935 15.72C70.2935 15.368 70.4935 14.8 70.4935 14.016C70.4935 13.536 70.4455 12.864 70.3495 12C70.1895 10.176 70.0855 8.952 70.0375 8.328C69.6535 9.592 69.0055 11.104 68.0935 12.864C68.4615 13.056 68.6455 13.336 68.6455 13.704C68.6455 14.008 68.5415 14.28 68.3335 14.52C68.1415 14.76 67.8935 14.88 67.5895 14.88C67.2535 14.88 67.0375 14.776 66.9415 14.568C66.9415 15.144 67.0535 15.568 67.2775 15.84C67.5175 16.112 67.8935 16.248 68.4055 16.248ZM84.2656 18.144C83.2896 18.144 82.5696 17.888 82.1056 17.376C81.6576 16.848 81.4336 16.2 81.4336 15.432C81.4336 15.096 81.4736 14.72 81.5536 14.304C81.6336 13.872 81.7136 13.456 81.7936 13.056C81.8896 12.656 81.9536 12.4 81.9856 12.288C82.1136 11.728 82.2336 11.176 82.3456 10.632C82.4576 10.088 82.5136 9.648 82.5136 9.312C82.5136 8.496 82.2256 8.088 81.6496 8.088C81.2336 8.088 80.8656 8.296 80.5456 8.712C80.2256 9.112 79.9696 9.64 79.7776 10.296L78.1456 18H74.6896L78.1696 1.68L81.7216 1.2L80.4256 7.248C81.2256 6.352 82.1616 5.904 83.2336 5.904C84.0496 5.904 84.6976 6.128 85.1776 6.576C85.6576 7.024 85.8976 7.704 85.8976 8.616C85.8976 9.08 85.8416 9.6 85.7296 10.176C85.6176 10.736 85.4576 11.424 85.2496 12.24C85.1216 12.736 85.0016 13.224 84.8896 13.704C84.7936 14.168 84.7456 14.536 84.7456 14.808C84.7456 15.128 84.8176 15.376 84.9616 15.552C85.1056 15.728 85.3536 15.816 85.7056 15.816C86.1856 15.816 86.5696 15.648 86.8576 15.312C87.1456 14.96 87.4336 14.424 87.7216 13.704H88.7296C88.1376 15.464 87.4496 16.648 86.6656 17.256C85.8976 17.848 85.0976 18.144 84.2656 18.144ZM91.2228 18.096C90.0388 18.096 89.1028 17.792 88.4148 17.184C87.7268 16.576 87.3827 15.616 87.3827 14.304C87.3827 13.216 87.6067 12.008 88.0548 10.68C88.5028 9.352 89.2228 8.208 90.2148 7.248C91.2068 6.272 92.4548 5.784 93.9588 5.784C96.0068 5.784 97.0308 7.064 97.0308 9.624V9.648C97.0788 9.664 97.1668 9.672 97.2948 9.672C97.8228 9.672 98.4308 9.536 99.1188 9.264C99.8068 8.976 100.431 8.632 100.991 8.232L101.207 8.88C100.743 9.376 100.135 9.8 99.3828 10.152C98.6468 10.488 97.8388 10.728 96.9588 10.872C96.8308 12.328 96.5028 13.6 95.9748 14.688C95.4468 15.776 94.7668 16.616 93.9348 17.208C93.1028 17.8 92.1988 18.096 91.2228 18.096ZM92.1828 15.936C92.5668 15.936 92.9508 15.72 93.3348 15.288C93.7188 14.84 94.0548 14.24 94.3428 13.488C94.6308 12.72 94.8388 11.872 94.9668 10.944C94.5348 10.848 94.3188 10.512 94.3188 9.936C94.3188 9.28 94.5668 8.848 95.0628 8.64C95.0308 8.112 94.9508 7.752 94.8228 7.56C94.6948 7.352 94.4708 7.248 94.1508 7.248C93.6228 7.248 93.1108 7.632 92.6148 8.4C92.1188 9.168 91.7188 10.088 91.4148 11.16C91.1108 12.232 90.9588 13.176 90.9588 13.992C90.9588 14.76 91.0468 15.28 91.2228 15.552C91.3988 15.808 91.7188 15.936 92.1828 15.936ZM100.09 5.112H103.546L103.162 6.912C103.962 6.224 104.898 5.88 105.97 5.88C106.866 5.88 107.578 6.176 108.106 6.768C108.634 7.36 108.898 8.328 108.898 9.672C108.898 10.936 108.714 12.216 108.346 13.512C107.978 14.792 107.354 15.888 106.474 16.8C105.594 17.696 104.434 18.144 102.994 18.144C101.97 18.144 101.29 17.856 100.954 17.28L99.7056 23.136L96.0816 24L100.09 5.112ZM102.25 16.056C103.018 16.056 103.65 15.696 104.146 14.976C104.658 14.256 105.026 13.4 105.25 12.408C105.49 11.4 105.61 10.464 105.61 9.6C105.61 8.272 105.21 7.608 104.41 7.608C104.122 7.608 103.826 7.712 103.522 7.92C103.234 8.128 102.978 8.416 102.754 8.784L101.338 15.504C101.466 15.872 101.77 16.056 102.25 16.056ZM22.7745 52.968C21.6065 52.968 20.6625 52.664 19.9425 52.056C19.2385 51.464 18.8865 50.68 18.8865 49.704C18.8865 49.096 19.0305 48.536 19.3185 48.024C19.6065 47.512 19.9985 47.112 20.4945 46.824C20.9905 46.52 21.5345 46.368 22.1265 46.368C22.7345 46.368 23.2225 46.52 23.5905 46.824C23.9745 47.128 24.1665 47.528 24.1665 48.024C24.1665 48.408 24.0785 48.712 23.9025 48.936C23.7585 48.744 23.5585 48.592 23.3025 48.48C23.0625 48.368 22.8065 48.312 22.5345 48.312C22.0545 48.312 21.6625 48.472 21.3585 48.792C21.0545 49.112 20.9025 49.528 20.9025 50.04C20.9025 50.552 21.0465 50.968 21.3345 51.288C21.6385 51.608 22.0145 51.768 22.4625 51.768C23.0225 51.768 23.5025 51.52 23.9025 51.024C24.3025 50.528 24.6065 49.792 24.8145 48.816L26.0145 43.512H25.9185C25.4865 44.12 24.9585 44.584 24.3345 44.904C23.7265 45.224 23.0545 45.384 22.3185 45.384C21.3905 45.384 20.5745 45.136 19.8705 44.64C19.1665 44.144 18.6225 43.44 18.2385 42.528C17.8705 41.6 17.6865 40.528 17.6865 39.312C17.6865 37.552 18.0705 35.952 18.8385 34.512C19.6065 33.056 20.6625 31.912 22.0065 31.08C23.3505 30.248 24.8305 29.832 26.4465 29.832C27.8065 29.832 28.8785 30.128 29.6625 30.72C30.4625 31.312 30.8625 32.12 30.8625 33.144C30.8625 33.832 30.6945 34.384 30.3585 34.8C30.0225 35.216 29.5825 35.424 29.0385 35.424C28.7345 35.424 28.4465 35.36 28.1745 35.232C27.9185 35.104 27.7025 34.92 27.5265 34.68C27.8145 34.488 28.0545 34.184 28.2465 33.768C28.4545 33.336 28.5585 32.904 28.5585 32.472C28.5585 31.992 28.4145 31.624 28.1265 31.368C27.8545 31.096 27.4625 30.96 26.9505 30.96C26.0225 30.96 25.1265 31.376 24.2625 32.208C23.3985 33.024 22.7025 34.096 22.1745 35.424C21.6465 36.752 21.3825 38.144 21.3825 39.6C21.3825 40.8 21.5745 41.72 21.9585 42.36C22.3425 42.984 22.8945 43.296 23.6145 43.296C24.4785 43.296 25.2385 42.84 25.8945 41.928C26.5665 41.016 27.1025 39.688 27.5025 37.944L30.3345 37.968L28.5825 46.032C28.0705 48.416 27.3425 50.168 26.3985 51.288C25.4705 52.408 24.2625 52.968 22.7745 52.968ZM34.6095 48.096C33.4255 48.096 32.4895 47.792 31.8015 47.184C31.1135 46.576 30.7695 45.616 30.7695 44.304C30.7695 43.216 30.9935 42.008 31.4415 40.68C31.8895 39.352 32.6095 38.208 33.6015 37.248C34.5935 36.272 35.8415 35.784 37.3455 35.784C39.3935 35.784 40.4175 37.064 40.4175 39.624V39.648C40.4655 39.664 40.5535 39.672 40.6815 39.672C41.2095 39.672 41.8175 39.536 42.5055 39.264C43.1935 38.976 43.8175 38.632 44.3775 38.232L44.5935 38.88C44.1295 39.376 43.5215 39.8 42.7695 40.152C42.0335 40.488 41.2255 40.728 40.3455 40.872C40.2175 42.328 39.8895 43.6 39.3615 44.688C38.8335 45.776 38.1535 46.616 37.3215 47.208C36.4895 47.8 35.5855 48.096 34.6095 48.096ZM35.5695 45.936C35.9535 45.936 36.3375 45.72 36.7215 45.288C37.1055 44.84 37.4415 44.24 37.7295 43.488C38.0175 42.72 38.2255 41.872 38.3535 40.944C37.9215 40.848 37.7055 40.512 37.7055 39.936C37.7055 39.28 37.9535 38.848 38.4495 38.64C38.4175 38.112 38.3375 37.752 38.2095 37.56C38.0815 37.352 37.8575 37.248 37.5375 37.248C37.0095 37.248 36.4975 37.632 36.0015 38.4C35.5055 39.168 35.1055 40.088 34.8015 41.16C34.4975 42.232 34.3455 43.176 34.3455 43.992C34.3455 44.76 34.4335 45.28 34.6095 45.552C34.7855 45.808 35.1055 45.936 35.5695 45.936ZM45.1563 48.096C43.9723 48.096 43.0363 47.792 42.3483 47.184C41.6603 46.576 41.3163 45.616 41.3163 44.304C41.3163 43.216 41.5403 42.008 41.9883 40.68C42.4363 39.352 43.1563 38.208 44.1483 37.248C45.1403 36.272 46.3883 35.784 47.8923 35.784C49.9403 35.784 50.9643 37.064 50.9643 39.624V39.648C51.0123 39.664 51.1003 39.672 51.2283 39.672C51.7563 39.672 52.3643 39.536 53.0523 39.264C53.7403 38.976 54.3643 38.632 54.9243 38.232L55.1403 38.88C54.6763 39.376 54.0683 39.8 53.3163 40.152C52.5803 40.488 51.7723 40.728 50.8923 40.872C50.7643 42.328 50.4363 43.6 49.9083 44.688C49.3803 45.776 48.7003 46.616 47.8683 47.208C47.0363 47.8 46.1323 48.096 45.1563 48.096ZM46.1163 45.936C46.5003 45.936 46.8843 45.72 47.2683 45.288C47.6523 44.84 47.9883 44.24 48.2763 43.488C48.5643 42.72 48.7723 41.872 48.9003 40.944C48.4683 40.848 48.2523 40.512 48.2523 39.936C48.2523 39.28 48.5003 38.848 48.9963 38.64C48.9643 38.112 48.8843 37.752 48.7563 37.56C48.6283 37.352 48.4043 37.248 48.0843 37.248C47.5563 37.248 47.0443 37.632 46.5483 38.4C46.0523 39.168 45.6523 40.088 45.3483 41.16C45.0443 42.232 44.8923 43.176 44.8923 43.992C44.8923 44.76 44.9803 45.28 45.1563 45.552C45.3323 45.808 45.6523 45.936 46.1163 45.936ZM55.0792 48.144C54.1672 48.144 53.4072 47.832 52.7992 47.208C52.1912 46.584 51.8872 45.608 51.8872 44.28C51.8872 43.096 52.1192 41.856 52.5832 40.56C53.0632 39.248 53.7672 38.144 54.6952 37.248C55.6392 36.336 56.7592 35.88 58.0552 35.88C58.7112 35.88 59.1992 35.992 59.5192 36.216C59.8392 36.44 59.9992 36.736 59.9992 37.104V37.2L61.1752 31.68L64.7272 31.2L61.9672 44.16C61.9032 44.4 61.8712 44.656 61.8712 44.928C61.8712 45.248 61.9432 45.48 62.0872 45.624C62.2472 45.752 62.5032 45.816 62.8552 45.816C63.3032 45.816 63.6872 45.624 64.0072 45.24C64.3432 44.856 64.6072 44.344 64.7992 43.704H65.8072C64.8312 46.568 63.2232 48 60.9832 48C60.3272 48 59.7912 47.824 59.3752 47.472C58.9752 47.12 58.7272 46.608 58.6312 45.936C58.2152 46.576 57.7112 47.104 57.1192 47.52C56.5432 47.936 55.8632 48.144 55.0792 48.144ZM56.6392 45.816C57.0232 45.816 57.4072 45.64 57.7912 45.288C58.1912 44.936 58.4632 44.448 58.6072 43.824V43.704L59.7832 38.208C59.6392 37.648 59.3112 37.368 58.7992 37.368C58.1592 37.368 57.5832 37.744 57.0712 38.496C56.5592 39.232 56.1592 40.128 55.8712 41.184C55.5832 42.224 55.4392 43.144 55.4392 43.944C55.4392 44.744 55.5512 45.256 55.7752 45.48C56.0152 45.704 56.3032 45.816 56.6392 45.816ZM68.2406 48.144C67.0566 48.144 66.1366 47.84 65.4806 47.232C64.8246 46.608 64.4966 45.64 64.4966 44.328C64.4966 43.224 64.7126 42.008 65.1446 40.68C65.5926 39.352 66.2966 38.208 67.2566 37.248C68.2326 36.272 69.4646 35.784 70.9526 35.784C71.9126 35.784 72.5926 35.992 72.9926 36.408C73.4086 36.824 73.6166 37.352 73.6166 37.992C73.6166 38.552 73.4966 38.984 73.2566 39.288C73.0166 39.592 72.7126 39.744 72.3446 39.744C72.0726 39.744 71.7926 39.648 71.5046 39.456C71.6966 38.928 71.7926 38.456 71.7926 38.04C71.7926 37.736 71.7366 37.496 71.6246 37.32C71.5126 37.144 71.3446 37.056 71.1206 37.056C70.6406 37.056 70.1606 37.448 69.6806 38.232C69.2006 39.016 68.8086 39.968 68.5046 41.088C68.2006 42.208 68.0486 43.216 68.0486 44.112C68.0486 44.896 68.1846 45.432 68.4566 45.72C68.7286 45.992 69.1686 46.128 69.7766 46.128C70.6406 46.128 71.3766 45.928 71.9846 45.528C72.6086 45.128 73.2886 44.52 74.0246 43.704H74.8406C73.0646 46.664 70.8646 48.144 68.2406 48.144ZM76.3955 48.144C75.6275 48.144 75.0035 47.904 74.5235 47.424C74.0595 46.944 73.8275 46.224 73.8275 45.264C73.8275 44.864 73.8915 44.344 74.0195 43.704L75.6515 36H79.1075L77.3795 44.16C77.3315 44.4 77.3075 44.624 77.3075 44.832C77.3075 45.488 77.5475 45.816 78.0275 45.816C78.4755 45.816 78.8595 45.632 79.1795 45.264C79.4995 44.88 79.7555 44.36 79.9475 43.704L81.5795 36H85.0355L83.3075 44.16C83.2435 44.4 83.2115 44.656 83.2115 44.928C83.2115 45.248 83.2835 45.48 83.4275 45.624C83.5875 45.752 83.8435 45.816 84.1955 45.816C84.6435 45.816 85.0275 45.624 85.3475 45.24C85.6835 44.856 85.9475 44.344 86.1395 43.704H87.1475C86.5555 45.432 85.8195 46.608 84.9395 47.232C84.0755 47.84 83.2035 48.144 82.3235 48.144C81.6355 48.144 81.0835 47.952 80.6675 47.568C80.2675 47.184 80.0275 46.616 79.9475 45.864C79.4035 46.744 78.8275 47.344 78.2195 47.664C77.6275 47.984 77.0195 48.144 76.3955 48.144ZM88.3927 48.144C87.5767 48.144 86.9687 47.896 86.5687 47.4C86.1847 46.904 85.9927 46.248 85.9927 45.432C85.9927 45.016 86.0407 44.592 86.1367 44.16L87.6727 36.96H86.8807L87.0727 36H87.8647L88.5847 32.688L92.1367 32.208C91.9927 32.816 91.9127 33.176 91.8967 33.288C91.7847 33.736 91.5927 34.64 91.3207 36H92.7607L92.5687 36.96H91.1287L89.5927 44.16C89.5127 44.512 89.4727 44.792 89.4727 45C89.4727 45.576 89.7527 45.864 90.3127 45.864C90.6007 45.864 90.8087 45.84 90.9367 45.792C90.6167 46.72 90.2407 47.344 89.8087 47.664C89.3767 47.984 88.9047 48.144 88.3927 48.144Z" fill="#F9F9F9"/>
</g>
<defs>
<filter id="filter0_d" x="0.795815" y="0" width="108.102" height="56.968" filterUnits="userSpaceOnUse" color-interpolation-filters="sRGB">
<feFlood flood-opacity="0" result="BackgroundImageFix"/>
<feColorMatrix in="SourceAlpha" type="matrix" values="0 0 0 0 0 0 0 0 0 0 0 0 0 0 0 0 0 0 127 0"/>
<feOffset dy="4"/>
<feColorMatrix type="matrix" values="0 0 0 0 0 0 0 0 0 0 0 0 0 0 0 0 0 0 0.5 0"/>
<feBlend mode="normal" in2="BackgroundImageFix" result="effect1_dropShadow"/>
<feBlend mode="normal" in="SourceGraphic" in2="effect1_dropShadow" result="shape"/>
</filter>
</defs>
</svg>
