<svg width="76" height="24" viewBox="0 0 76 24" fill="none" xmlns="http://www.w3.org/2000/svg">
<path d="M5.544 23.968C4.376 23.968 3.432 23.664 2.712 23.056C2.008 22.464 1.656 21.68 1.656 20.704C1.656 20.096 1.8 19.536 2.088 19.024C2.376 18.512 2.768 18.112 3.264 17.824C3.76 17.52 4.304 17.368 4.896 17.368C5.504 17.368 5.992 17.52 6.36 17.824C6.744 18.128 6.936 18.528 6.936 19.024C6.936 19.408 6.848 19.712 6.672 19.936C6.528 19.744 6.328 19.592 6.072 19.48C5.832 19.368 5.576 19.312 5.304 19.312C4.824 19.312 4.432 19.472 4.128 19.792C3.824 20.112 3.672 20.528 3.672 21.04C3.672 21.552 3.816 21.968 4.104 22.288C4.408 22.608 4.784 22.768 5.232 22.768C5.792 22.768 6.272 22.52 6.672 22.024C7.072 21.528 7.376 20.792 7.584 19.816L8.784 14.512H8.688C8.256 15.12 7.728 15.584 7.104 15.904C6.496 16.224 5.824 16.384 5.088 16.384C4.16 16.384 3.344 16.136 2.64 15.64C1.936 15.144 1.392 14.44 1.008 13.528C0.64 12.6 0.456 11.528 0.456 10.312C0.456 8.552 0.84 6.952 1.608 5.512C2.376 4.056 3.432 2.912 4.776 2.08C6.12 1.248 7.6 0.831999 9.216 0.831999C10.576 0.831999 11.648 1.128 12.432 1.72C13.232 2.312 13.632 3.12 13.632 4.144C13.632 4.832 13.464 5.384 13.128 5.8C12.792 6.216 12.352 6.424 11.808 6.424C11.504 6.424 11.216 6.36 10.944 6.232C10.688 6.104 10.472 5.92 10.296 5.68C10.584 5.488 10.824 5.184 11.016 4.768C11.224 4.336 11.328 3.904 11.328 3.472C11.328 2.992 11.184 2.624 10.896 2.368C10.624 2.096 10.232 1.96 9.72 1.96C8.792 1.96 7.896 2.376 7.032 3.208C6.168 4.024 5.472 5.096 4.944 6.424C4.416 7.752 4.152 9.144 4.152 10.6C4.152 11.8 4.344 12.72 4.728 13.36C5.112 13.984 5.664 14.296 6.384 14.296C7.248 14.296 8.008 13.84 8.664 12.928C9.336 12.016 9.872 10.688 10.272 8.944L13.104 8.968L11.352 17.032C10.84 19.416 10.112 21.168 9.168 22.288C8.24 23.408 7.032 23.968 5.544 23.968ZM17.379 19.096C16.195 19.096 15.259 18.792 14.571 18.184C13.883 17.576 13.539 16.616 13.539 15.304C13.539 14.216 13.763 13.008 14.211 11.68C14.659 10.352 15.379 9.208 16.371 8.248C17.363 7.272 18.611 6.784 20.115 6.784C22.163 6.784 23.187 8.064 23.187 10.624V10.648C23.235 10.664 23.323 10.672 23.451 10.672C23.979 10.672 24.587 10.536 25.275 10.264C25.963 9.976 26.587 9.632 27.147 9.232L27.363 9.88C26.899 10.376 26.291 10.8 25.539 11.152C24.803 11.488 23.995 11.728 23.115 11.872C22.987 13.328 22.659 14.6 22.131 15.688C21.603 16.776 20.923 17.616 20.091 18.208C19.259 18.8 18.355 19.096 17.379 19.096ZM18.339 16.936C18.723 16.936 19.107 16.72 19.491 16.288C19.875 15.84 20.211 15.24 20.499 14.488C20.787 13.72 20.995 12.872 21.123 11.944C20.691 11.848 20.475 11.512 20.475 10.936C20.475 10.28 20.723 9.848 21.219 9.64C21.187 9.112 21.107 8.752 20.979 8.56C20.851 8.352 20.627 8.248 20.307 8.248C19.779 8.248 19.267 8.632 18.771 9.4C18.275 10.168 17.875 11.088 17.571 12.16C17.267 13.232 17.115 14.176 17.115 14.992C17.115 15.76 17.203 16.28 17.379 16.552C17.555 16.808 17.875 16.936 18.339 16.936ZM27.9259 19.096C26.7419 19.096 25.8059 18.792 25.1179 18.184C24.4299 17.576 24.0859 16.616 24.0859 15.304C24.0859 14.216 24.3099 13.008 24.7579 11.68C25.2059 10.352 25.9259 9.208 26.9179 8.248C27.9099 7.272 29.1579 6.784 30.6619 6.784C32.7099 6.784 33.7339 8.064 33.7339 10.624V10.648C33.7819 10.664 33.8699 10.672 33.9979 10.672C34.5259 10.672 35.1339 10.536 35.8219 10.264C36.5099 9.976 37.1339 9.632 37.6939 9.232L37.9099 9.88C37.4459 10.376 36.8379 10.8 36.0859 11.152C35.3499 11.488 34.5419 11.728 33.6619 11.872C33.5339 13.328 33.2059 14.6 32.6779 15.688C32.1499 16.776 31.4699 17.616 30.6379 18.208C29.8059 18.8 28.9019 19.096 27.9259 19.096ZM28.8859 16.936C29.2699 16.936 29.6539 16.72 30.0379 16.288C30.4219 15.84 30.7579 15.24 31.0459 14.488C31.3339 13.72 31.5419 12.872 31.6699 11.944C31.2379 11.848 31.0219 11.512 31.0219 10.936C31.0219 10.28 31.2699 9.848 31.7659 9.64C31.7339 9.112 31.6539 8.752 31.5259 8.56C31.3979 8.352 31.1739 8.248 30.8539 8.248C30.3259 8.248 29.8139 8.632 29.3179 9.4C28.8219 10.168 28.4219 11.088 28.1179 12.16C27.8139 13.232 27.6619 14.176 27.6619 14.992C27.6619 15.76 27.7499 16.28 27.9259 16.552C28.1019 16.808 28.4219 16.936 28.8859 16.936ZM37.8488 19.144C36.9368 19.144 36.1768 18.832 35.5688 18.208C34.9607 17.584 34.6567 16.608 34.6567 15.28C34.6567 14.096 34.8888 12.856 35.3528 11.56C35.8328 10.248 36.5368 9.144 37.4648 8.248C38.4088 7.336 39.5288 6.88 40.8248 6.88C41.4808 6.88 41.9688 6.992 42.2888 7.216C42.6088 7.44 42.7688 7.736 42.7688 8.104V8.2L43.9448 2.68L47.4968 2.2L44.7368 15.16C44.6728 15.4 44.6408 15.656 44.6408 15.928C44.6408 16.248 44.7128 16.48 44.8568 16.624C45.0168 16.752 45.2728 16.816 45.6248 16.816C46.0728 16.816 46.4568 16.624 46.7768 16.24C47.1128 15.856 47.3768 15.344 47.5688 14.704H48.5768C47.6008 17.568 45.9928 19 43.7528 19C43.0968 19 42.5608 18.824 42.1448 18.472C41.7448 18.12 41.4968 17.608 41.4008 16.936C40.9848 17.576 40.4808 18.104 39.8888 18.52C39.3128 18.936 38.6328 19.144 37.8488 19.144ZM39.4088 16.816C39.7928 16.816 40.1768 16.64 40.5608 16.288C40.9608 15.936 41.2328 15.448 41.3768 14.824V14.704L42.5528 9.208C42.4088 8.648 42.0808 8.368 41.5688 8.368C40.9288 8.368 40.3528 8.744 39.8408 9.496C39.3288 10.232 38.9288 11.128 38.6408 12.184C38.3528 13.224 38.2088 14.144 38.2088 14.944C38.2088 15.744 38.3208 16.256 38.5448 16.48C38.7848 16.704 39.0728 16.816 39.4088 16.816ZM51.0101 19.144C49.8261 19.144 48.9061 18.84 48.2501 18.232C47.5941 17.608 47.2661 16.64 47.2661 15.328C47.2661 14.224 47.4821 13.008 47.9141 11.68C48.3621 10.352 49.0661 9.208 50.0261 8.248C51.0021 7.272 52.2341 6.784 53.7221 6.784C54.6821 6.784 55.3621 6.992 55.7621 7.408C56.1781 7.824 56.3861 8.352 56.3861 8.992C56.3861 9.552 56.2661 9.984 56.0261 10.288C55.7861 10.592 55.4821 10.744 55.1141 10.744C54.8421 10.744 54.5621 10.648 54.2741 10.456C54.4661 9.928 54.5621 9.456 54.5621 9.04C54.5621 8.736 54.5061 8.496 54.3941 8.32C54.2821 8.144 54.1141 8.056 53.8901 8.056C53.4101 8.056 52.9301 8.448 52.4501 9.232C51.9701 10.016 51.5781 10.968 51.2741 12.088C50.9701 13.208 50.8181 14.216 50.8181 15.112C50.8181 15.896 50.9541 16.432 51.2261 16.72C51.4981 16.992 51.9381 17.128 52.5461 17.128C53.4101 17.128 54.1461 16.928 54.7541 16.528C55.3781 16.128 56.0581 15.52 56.7941 14.704H57.6101C55.8341 17.664 53.6341 19.144 51.0101 19.144ZM59.1651 19.144C58.3971 19.144 57.7731 18.904 57.2931 18.424C56.8291 17.944 56.5971 17.224 56.5971 16.264C56.5971 15.864 56.6611 15.344 56.7891 14.704L58.4211 7H61.8771L60.1491 15.16C60.1011 15.4 60.0771 15.624 60.0771 15.832C60.0771 16.488 60.3171 16.816 60.7971 16.816C61.2451 16.816 61.6291 16.632 61.9491 16.264C62.2691 15.88 62.5251 15.36 62.7171 14.704L64.3491 7H67.8051L66.0771 15.16C66.0131 15.4 65.9811 15.656 65.9811 15.928C65.9811 16.248 66.0531 16.48 66.1971 16.624C66.3571 16.752 66.6131 16.816 66.9651 16.816C67.4131 16.816 67.7971 16.624 68.1171 16.24C68.4531 15.856 68.7171 15.344 68.9091 14.704H69.9171C69.3251 16.432 68.5891 17.608 67.7091 18.232C66.8451 18.84 65.9731 19.144 65.0931 19.144C64.4051 19.144 63.8531 18.952 63.4371 18.568C63.0371 18.184 62.7971 17.616 62.7171 16.864C62.1731 17.744 61.5971 18.344 60.9891 18.664C60.3971 18.984 59.7891 19.144 59.1651 19.144ZM71.1623 19.144C70.3463 19.144 69.7383 18.896 69.3383 18.4C68.9543 17.904 68.7622 17.248 68.7622 16.432C68.7622 16.016 68.8102 15.592 68.9062 15.16L70.4423 7.96H69.6503L69.8423 7H70.6343L71.3543 3.688L74.9062 3.208C74.7623 3.816 74.6823 4.176 74.6663 4.288C74.5543 4.736 74.3623 5.64 74.0903 7H75.5303L75.3383 7.96H73.8983L72.3623 15.16C72.2823 15.512 72.2423 15.792 72.2423 16C72.2423 16.576 72.5223 16.864 73.0823 16.864C73.3703 16.864 73.5783 16.84 73.7063 16.792C73.3863 17.72 73.0103 18.344 72.5783 18.664C72.1463 18.984 71.6743 19.144 71.1623 19.144Z" fill="black"/>
</svg>
